# xmcd CD database file
#
# Track frame offsets:
#	150
#	13730
#	26900
#	38992
#	50135
#	63557
#	80057
#	91530
#	107092
#	119212
#	135725
#	153112
#	171285
#	189230
#
# Disc length: 2677 seconds
#
# Revision: 3
# Processed by: cddbd v1.5.2PL0 Copyright (c) Steve Scherf et al.
# Submitted via: CDex 1.51
#
DISCID=c00a730e
DTITLE=The Oak Ridge Boys - The Collection
DYEAR=1992
DGENRE=Country
TTITLE0=Leaving Louisiana in the Broad Daylight
TTITLE1=Y'all Come Back Saloon
TTITLE2=Elvira
TTITLE3=Trying To Love Two Women
TTITLE4=You're The One
TTITLE5=I'll Be True To You
TTITLE6=Cryin' Again
TTITLE7=I Wish You Could Have Turned My Head
TTITLE8=American Made
TTITLE9=Fancy Free
TTITLE10=Love Song
TTITLE11=I Guess It Never Hurts To Hurt Sometimes
TTITLE12=It Takes a Little Rain (To Make Love Grow)
TTITLE13=Thank God for Kids
EXTD=YEAR: 1992
EXTT0=
EXTT1=
EXTT2=
EXTT3=
EXTT4=
EXTT5=
EXTT6=
EXTT7=
EXTT8=
EXTT9=
EXTT10=
EXTT11=
EXTT12=
EXTT13=
PLAYORDER=
